<svg width="28" height="19" viewBox="0 0 28 19" fill="none" xmlns="http://www.w3.org/2000/svg">
<g clip-path="url(#clip0_257_230)">
<rect width="28" height="18.6667" fill="#FF4E4E"/>
<path d="M32.6668 0L-4.6665 0L-4.6665 18.6667L32.6668 18.6667V0Z" fill="#509E2F"/>
<path d="M32.6668 0L-4.6665 0L-4.6665 12.4444L32.6668 12.4444V0Z" fill="#EF3340"/>
<path d="M32.6668 0L-4.6665 0L-4.6665 6.22222L32.6668 6.22222V0Z" fill="#00B5E2"/>
<path d="M13.3771 12.133C14.9237 12.133 16.1775 10.8792 16.1775 9.33254C16.1775 7.7859 14.9237 6.5321 13.3771 6.5321C11.8305 6.5321 10.5767 7.7859 10.5767 9.33254C10.5767 10.8792 11.8305 12.133 13.3771 12.133Z" fill="white"/>
<path d="M14.0004 11.6657C15.2888 11.6657 16.3332 10.6213 16.3332 9.33287C16.3332 8.04446 15.2888 7 14.0004 7C12.7119 7 11.6675 8.04446 11.6675 9.33287C11.6675 10.6213 12.7119 11.6657 14.0004 11.6657Z" fill="#ED2939"/>
<path d="M16.4879 7.7774L16.7856 8.61409L17.5879 8.23266L17.2064 9.03489L18.0431 9.33265L17.2064 9.63041L17.5879 10.4326L16.7856 10.0512L16.4879 10.8879L16.1901 10.0512L15.3879 10.4326L15.7693 9.63041L14.9326 9.33265L15.7693 9.03489L15.3879 8.23266L16.1901 8.61409L16.4879 7.7774Z" fill="white"/>
</g>
<defs>
<clipPath id="clip0_257_230">
<rect width="28" height="18.6667" fill="white"/>
</clipPath>
</defs>
</svg>
