<svg width="14" height="12" viewBox="0 0 14 12" fill="none" xmlns="http://www.w3.org/2000/svg">
<path d="M12.4961 0.667969H1.50391C1.10518 0.668403 0.722907 0.826989 0.440964 1.10893C0.159021 1.39088 0.000434265 1.77315 0 2.17188V9.82812C0.000434265 10.2269 0.159021 10.6091 0.440964 10.8911C0.722907 11.173 1.10518 11.3316 1.50391 11.332H12.4961C12.8948 11.3316 13.2771 11.173 13.559 10.8911C13.841 10.6091 13.9996 10.2269 14 9.82812V2.17188C13.9996 1.77315 13.841 1.39088 13.559 1.10893C13.2771 0.826989 12.8948 0.668403 12.4961 0.667969ZM13.1797 2.17188V9.82812C13.1797 9.86135 13.1772 9.89453 13.1723 9.92738L9.22879 6L13.1723 2.07262C13.1772 2.10547 13.1797 2.13865 13.1797 2.17188ZM12.4961 1.48828C12.5276 1.48838 12.559 1.49058 12.5902 1.49484L7 7.06176L1.40984 1.49484C1.44102 1.49058 1.47244 1.48838 1.50391 1.48828H12.4961ZM0.827695 9.92738C0.82275 9.89453 0.820282 9.86135 0.820312 9.82812V2.17188C0.820282 2.13865 0.82275 2.10547 0.827695 2.07262L4.77121 6L0.827695 9.92738ZM1.50391 10.5117C1.47244 10.5116 1.44102 10.5094 1.40984 10.5052L5.35254 6.57887L6.7107 7.93129C6.78756 8.00776 6.89158 8.0507 7 8.0507C7.10842 8.0507 7.21244 8.00776 7.2893 7.93129L8.64746 6.57887L12.5902 10.5052C12.559 10.5094 12.5276 10.5116 12.4961 10.5117H1.50391Z" fill="#1F4677"/>
</svg>
