<svg width="14" height="14" viewBox="0 0 14 14" fill="none" xmlns="http://www.w3.org/2000/svg">
<path d="M12.4961 1.66797H1.50391C1.10518 1.6684 0.722907 1.82699 0.440964 2.10893C0.159021 2.39088 0.000434265 2.77315 0 3.17188V10.8281C0.000434265 11.2269 0.159021 11.6091 0.440964 11.8911C0.722907 12.173 1.10518 12.3316 1.50391 12.332H12.4961C12.8948 12.3316 13.2771 12.173 13.559 11.8911C13.841 11.6091 13.9996 11.2269 14 10.8281V3.17188C13.9996 2.77315 13.841 2.39088 13.559 2.10893C13.2771 1.82699 12.8948 1.6684 12.4961 1.66797ZM13.1797 3.17188V10.8281C13.1797 10.8613 13.1773 10.8945 13.1723 10.9274L9.22879 7L13.1723 3.07262C13.1773 3.10547 13.1797 3.13865 13.1797 3.17188ZM12.4961 2.48828C12.5276 2.48838 12.559 2.49058 12.5902 2.49484L7 8.06176L1.40984 2.49484C1.44102 2.49058 1.47244 2.48838 1.50391 2.48828H12.4961ZM0.827695 10.9274C0.82275 10.8945 0.820282 10.8613 0.820312 10.8281V3.17188C0.820282 3.13865 0.82275 3.10547 0.827695 3.07262L4.77121 7L0.827695 10.9274ZM1.50391 11.5117C1.47244 11.5116 1.44102 11.5094 1.40984 11.5052L5.35254 7.57887L6.7107 8.93129C6.78756 9.00776 6.89158 9.0507 7 9.0507C7.10842 9.0507 7.21244 9.00776 7.2893 8.93129L8.64746 7.57887L12.5902 11.5052C12.559 11.5094 12.5276 11.5116 12.4961 11.5117H1.50391Z" fill="black"/>
</svg>
