<svg width="28" height="19" viewBox="0 0 28 19" fill="none" xmlns="http://www.w3.org/2000/svg">
<g clip-path="url(#clip0_257_232)">
<path d="M0 0H28V18.6667H0" fill="#B31942"/>
<path d="M0 2.15387H28H0ZM28 5.02567H0H28ZM0 7.89746H28H0ZM28 10.7693H0H28ZM0 13.6411H28H0ZM28 16.5128H0H28Z" fill="black"/>
<path fill-rule="evenodd" clip-rule="evenodd" d="M28 2.87181H0V1.43591H28V2.87181ZM0 4.30771H28V5.74361H0V4.30771ZM28 8.6154H0V7.1795H28V8.6154ZM0 10.0513H28V11.4872H0V10.0513ZM28 14.359H0V12.9231H28V14.359ZM0 15.7949H28V17.2308H0V15.7949Z" fill="white"/>
<path d="M0 0H14.2622V10.0513H0" fill="#0A3161"/>
<path d="M1.18832 0.430786L1.52771 1.46981L0.63916 0.827659H1.73747L0.848919 1.46981L1.18832 0.430786Z" fill="white"/>
<path d="M1.18832 2.44104L1.52771 3.48007L0.63916 2.83791H1.73747L0.848919 3.48007L1.18832 2.44104Z" fill="white"/>
<path d="M1.18832 4.45129L1.52771 5.49032L0.63916 4.84817H1.73747L0.848919 5.49032L1.18832 4.45129Z" fill="white"/>
<path d="M1.18832 6.46155L1.52771 7.50057L0.63916 6.85842H1.73747L0.848919 7.50057L1.18832 6.46155Z" fill="white"/>
<path d="M1.18832 8.4718L1.52771 9.51083L0.63916 8.86867H1.73747L0.848919 9.51083L1.18832 8.4718Z" fill="white"/>
<path d="M2.37679 1.43591L2.71619 2.47494L1.82764 1.83279H2.92595L2.0374 2.47494L2.37679 1.43591Z" fill="white"/>
<path d="M2.37679 3.44617L2.71619 4.48519L1.82764 3.84304H2.92595L2.0374 4.48519L2.37679 3.44617Z" fill="white"/>
<path d="M2.37679 5.45642L2.71619 6.49545L1.82764 5.85329H2.92595L2.0374 6.49545L2.37679 5.45642Z" fill="white"/>
<path d="M2.37679 7.46667L2.71619 8.5057L1.82764 7.86355H2.92595L2.0374 8.5057L2.37679 7.46667Z" fill="white"/>
<path d="M3.56527 0.430786L3.90467 1.46981L3.01611 0.827659H4.11442L3.22587 1.46981L3.56527 0.430786Z" fill="white"/>
<path d="M3.56527 2.44104L3.90467 3.48007L3.01611 2.83791H4.11442L3.22587 3.48007L3.56527 2.44104Z" fill="white"/>
<path d="M3.56527 4.45129L3.90467 5.49032L3.01611 4.84817H4.11442L3.22587 5.49032L3.56527 4.45129Z" fill="white"/>
<path d="M3.56527 6.46155L3.90467 7.50057L3.01611 6.85842H4.11442L3.22587 7.50057L3.56527 6.46155Z" fill="white"/>
<path d="M3.56527 8.4718L3.90467 9.51083L3.01611 8.86867H4.11442L3.22587 9.51083L3.56527 8.4718Z" fill="white"/>
<path d="M4.75375 1.43591L5.09314 2.47494L4.20459 1.83279H5.3029L4.41435 2.47494L4.75375 1.43591Z" fill="white"/>
<path d="M4.75375 3.44617L5.09314 4.48519L4.20459 3.84304H5.3029L4.41435 4.48519L4.75375 3.44617Z" fill="white"/>
<path d="M4.75375 5.45642L5.09314 6.49545L4.20459 5.85329H5.3029L4.41435 6.49545L4.75375 5.45642Z" fill="white"/>
<path d="M4.75375 7.46667L5.09314 8.5057L4.20459 7.86355H5.3029L4.41435 8.5057L4.75375 7.46667Z" fill="white"/>
<path d="M5.94222 0.430786L6.28162 1.46981L5.39307 0.827659H6.49138L5.60283 1.46981L5.94222 0.430786Z" fill="white"/>
<path d="M5.94222 2.44104L6.28162 3.48007L5.39307 2.83791H6.49138L5.60282 3.48007L5.94222 2.44104Z" fill="white"/>
<path d="M5.94222 4.45129L6.28162 5.49032L5.39307 4.84817H6.49138L5.60282 5.49032L5.94222 4.45129Z" fill="white"/>
<path d="M5.94222 6.46155L6.28162 7.50057L5.39307 6.85842H6.49138L5.60282 7.50057L5.94222 6.46155Z" fill="white"/>
<path d="M5.94222 8.4718L6.28162 9.51083L5.39307 8.86867H6.49138L5.60282 9.51083L5.94222 8.4718Z" fill="white"/>
<path d="M7.1307 1.43591L7.47009 2.47494L6.58154 1.83279H7.67985L6.7913 2.47494L7.1307 1.43591Z" fill="white"/>
<path d="M7.1307 3.44617L7.47009 4.48519L6.58154 3.84304H7.67985L6.7913 4.48519L7.1307 3.44617Z" fill="white"/>
<path d="M7.1307 5.45642L7.47009 6.49545L6.58154 5.85329H7.67985L6.7913 6.49545L7.1307 5.45642Z" fill="white"/>
<path d="M7.1307 7.46667L7.47009 8.5057L6.58154 7.86355H7.67985L6.7913 8.5057L7.1307 7.46667Z" fill="white"/>
<path d="M8.31917 0.430786L8.65857 1.46981L7.77002 0.827659H8.86833L7.97978 1.46981L8.31917 0.430786Z" fill="white"/>
<path d="M8.31917 2.44104L8.65857 3.48007L7.77002 2.83791H8.86833L7.97978 3.48007L8.31917 2.44104Z" fill="white"/>
<path d="M8.31917 4.45129L8.65857 5.49032L7.77002 4.84817H8.86833L7.97978 5.49032L8.31917 4.45129Z" fill="white"/>
<path d="M8.31917 6.46155L8.65857 7.50057L7.77002 6.85842H8.86833L7.97978 7.50057L8.31917 6.46155Z" fill="white"/>
<path d="M8.31917 8.4718L8.65857 9.51083L7.77002 8.86867H8.86833L7.97978 9.51083L8.31917 8.4718Z" fill="white"/>
<path d="M9.50765 1.43591L9.84705 2.47494L8.9585 1.83279H10.0568L9.16825 2.47494L9.50765 1.43591Z" fill="white"/>
<path d="M9.50765 3.44617L9.84705 4.48519L8.9585 3.84304H10.0568L9.16825 4.48519L9.50765 3.44617Z" fill="white"/>
<path d="M9.50765 5.45642L9.84705 6.49545L8.9585 5.85329H10.0568L9.16825 6.49545L9.50765 5.45642Z" fill="white"/>
<path d="M9.50765 7.46667L9.84705 8.5057L8.9585 7.86355H10.0568L9.16825 8.5057L9.50765 7.46667Z" fill="white"/>
<path d="M10.6966 0.430786L11.036 1.46981L10.1475 0.827659H11.2458L10.3572 1.46981L10.6966 0.430786Z" fill="white"/>
<path d="M10.6966 2.44104L11.036 3.48007L10.1475 2.83791H11.2458L10.3572 3.48007L10.6966 2.44104Z" fill="white"/>
<path d="M10.6966 4.45129L11.036 5.49032L10.1475 4.84817H11.2458L10.3572 5.49032L10.6966 4.45129Z" fill="white"/>
<path d="M10.6966 6.46155L11.036 7.50057L10.1475 6.85842H11.2458L10.3572 7.50057L10.6966 6.46155Z" fill="white"/>
<path d="M10.6966 8.4718L11.036 9.51083L10.1475 8.86867H11.2458L10.3572 9.51083L10.6966 8.4718Z" fill="white"/>
<path d="M11.8851 1.43591L12.2245 2.47494L11.3359 1.83279H12.4342L11.5457 2.47494L11.8851 1.43591Z" fill="white"/>
<path d="M11.8851 3.44617L12.2245 4.48519L11.3359 3.84304H12.4342L11.5457 4.48519L11.8851 3.44617Z" fill="white"/>
<path d="M11.8851 5.45642L12.2245 6.49545L11.3359 5.85329H12.4342L11.5457 6.49545L11.8851 5.45642Z" fill="white"/>
<path d="M11.8851 7.46667L12.2245 8.5057L11.3359 7.86355H12.4342L11.5457 8.5057L11.8851 7.46667Z" fill="white"/>
<path d="M13.0736 0.430786L13.413 1.46981L12.5244 0.827659H13.6227L12.7342 1.46981L13.0736 0.430786Z" fill="white"/>
<path d="M13.0736 2.44104L13.413 3.48007L12.5244 2.83791H13.6227L12.7342 3.48007L13.0736 2.44104Z" fill="white"/>
<path d="M13.0736 4.45129L13.413 5.49032L12.5244 4.84817H13.6227L12.7342 5.49032L13.0736 4.45129Z" fill="white"/>
<path d="M13.0736 6.46155L13.413 7.50057L12.5244 6.85842H13.6227L12.7342 7.50057L13.0736 6.46155Z" fill="white"/>
<path d="M13.0736 8.4718L13.413 9.51083L12.5244 8.86867H13.6227L12.7342 9.51083L13.0736 8.4718Z" fill="white"/>
</g>
<defs>
<clipPath id="clip0_257_232">
<rect width="28" height="18.6667" fill="white"/>
</clipPath>
</defs>
</svg>
