<svg width="50" height="86" viewBox="0 0 50 86" fill="none" xmlns="http://www.w3.org/2000/svg">
<path d="M10.6562 16.0938C10.6562 8.17199 17.0782 1.75 25 1.75C32.9218 1.75 39.3438 8.17199 39.3438 16.0938V33.9063C39.3438 41.828 32.9218 48.25 25 48.25C17.0782 48.25 10.6562 41.828 10.6562 33.9063V16.0938ZM25 19.5625C26.9155 19.5625 28.4688 18.0092 28.4688 16.0938V10.1563C28.4688 8.24077 26.9155 6.6875 25 6.6875C23.0845 6.6875 21.5312 8.24077 21.5312 10.1563V16.0938C21.5312 18.0092 23.0845 19.5625 25 19.5625Z" fill="#2758A3" stroke="#2858A4"/>
<path d="M24.9998 84.9167C24.5664 84.9167 24.158 84.7477 23.8503 84.4411L12.1211 72.7108L12.887 71.9449L24.6163 83.6741C24.821 83.8789 25.1774 83.8789 25.3822 83.6741L37.1114 71.9449L37.8773 72.7108L26.1481 84.44C25.8415 84.7466 25.4331 84.9156 24.9987 84.9156L24.9998 84.9167ZM25.51 74.9186L37.8784 62.5502L37.1125 61.7843L24.9998 73.896L12.887 61.7832L12.1211 62.5502L24.4906 74.9186C24.6303 75.0584 24.8145 75.1277 24.9987 75.1277C25.1828 75.1277 25.3681 75.0595 25.51 74.9186Z" fill="#2858A4"/>
</svg>
