<svg width="50" height="87" viewBox="0 0 50 87" fill="none" xmlns="http://www.w3.org/2000/svg">
<g clip-path="url(#clip0_27_1266)">
<path d="M24.9862 1.09824C25.4195 1.09774 25.8281 1.26627 26.1362 1.57249L37.879 13.2892L37.114 14.056L25.3711 2.34038C25.1661 2.13587 24.8097 2.13628 24.6052 2.34127L12.8896 14.0841L12.1228 13.3191L23.8384 1.57624C24.1446 1.2693 24.5529 1.09983 24.9873 1.09933L24.9862 1.09824ZM24.4875 11.0969L12.1335 23.4797L12.9003 24.2447L24.999 12.119L37.1257 24.2177L37.8908 23.4498L25.5069 11.0957C25.367 10.9561 25.1828 10.887 24.9986 10.8872C24.8145 10.8874 24.6293 10.9559 24.4875 11.0969Z" fill="#2858A4"/>
</g>
<path d="M10.6562 52.124C10.6562 44.2023 17.0782 37.7803 25 37.7803C32.9218 37.7803 39.3438 44.2023 39.3438 52.124V69.9365C39.3438 77.8583 32.9218 84.2803 25 84.2803C17.0782 84.2803 10.6562 77.8583 10.6562 69.9365V52.124ZM25 55.5928C26.9155 55.5928 28.4688 54.0395 28.4688 52.124V46.1865C28.4688 44.271 26.9155 42.7178 25 42.7178C23.0845 42.7178 21.5312 44.271 21.5312 46.1865V52.124C21.5312 54.0395 23.0845 55.5928 25 55.5928Z" fill="#2758A3" stroke="#2858A4"/>
<defs>
<clipPath id="clip0_27_1266">
<rect width="26" height="26" fill="white" transform="translate(38.0151 26) rotate(179.934)"/>
</clipPath>
</defs>
</svg>
